<svg width="25" height="18" viewBox="0 0 25 18" fill="none" xmlns="http://www.w3.org/2000/svg">
<path id="youtube-[#168]" fill-rule="evenodd" clip-rule="evenodd" d="M9.98555 11.9826V4.96787C12.4758 6.13966 14.4045 7.27163 16.6856 8.49204C14.8042 9.53543 12.4758 10.7061 9.98555 11.9826ZM23.8638 1.4791C23.4342 0.913155 22.7021 0.472611 21.9226 0.326761C19.6316 -0.108301 5.33873 -0.109539 3.04894 0.326761C2.42389 0.443936 1.8673 0.727165 1.38917 1.16722C-0.625453 3.03709 0.00583272 13.0646 0.491434 14.6889C0.695634 15.392 0.959613 15.8991 1.29206 16.2319C1.72039 16.6719 2.30683 16.9749 2.98045 17.1108C4.86682 17.501 14.585 17.7192 21.8827 17.1694C22.5551 17.0522 23.1503 16.7395 23.6197 16.2807C25.4824 14.4183 25.3554 3.82767 23.8638 1.4791Z" fill="#434656"/>
</svg>
